<?xml version="1.0" encoding="UTF-8" standalone="no"?>
<!-- Created with Inkscape (http://www.inkscape.org/) -->

<svg
   width="768"
   height="768"
   viewBox="0 0 203.2 203.2"
   version="1.1"
   id="svg1"
   xml:space="preserve"
   xmlns:inkscape="http://www.inkscape.org/namespaces/inkscape"
   xmlns:sodipodi="http://sodipodi.sourceforge.net/DTD/sodipodi-0.dtd"
   xmlns="http://www.w3.org/2000/svg"
   xmlns:svg="http://www.w3.org/2000/svg"><sodipodi:namedview
     id="namedview1"
     pagecolor="#ffffff"
     bordercolor="#000000"
     borderopacity="0.25"
     inkscape:showpageshadow="2"
     inkscape:pageopacity="0.0"
     inkscape:pagecheckerboard="0"
     inkscape:deskcolor="#d1d1d1"
     inkscape:document-units="mm" /><defs
     id="defs1" /><rect
     style="fill:#ff6464;fill-opacity:1;stroke:none;stroke-width:1.91769"
     id="rect1"
     width="203.2"
     height="203.2"
     x="0"
     y="0"
     ry="0" /><g
     inkscape:label="Camada 1"
     inkscape:groupmode="layer"
     id="layer1"><path
       style="fill:#ff4b4e;fill-opacity:1;stroke-width:0.740706"
       d="m 38.990331,88.075663 c -9.132919,-0.4556 -17.424786,-3.912171 -22.922105,-9.555388 -0.557381,-0.572174 -1.147479,-0.998338 -1.382365,-0.998338 -0.874965,0 -2.466638,-1.021174 -3.473687,-2.228621 C 7.1064572,70.370556 4.021595,62.689348 2.6284595,53.92014 1.6504462,47.763934 2.5278863,42.064744 5.3081707,36.514791 9.8181281,27.512082 18.05988,20.047176 28.799455,15.237728 c 4.454182,-1.994694 10.078214,-3.655689 15.127131,-4.467627 3.063537,-0.492662 10.182683,-0.589769 13.394776,-0.182707 6.528195,0.827303 12.972653,3.293139 17.262192,6.60502 4.956485,3.826812 7.142396,6.216343 9.562267,10.453025 2.61555,4.579288 4.720146,12.27751 4.795237,17.540069 0.02121,1.492463 -0.03481,1.771554 -0.53936,2.681903 -0.498383,0.899261 -0.547923,1.137716 -0.430947,2.073976 0.295362,2.364022 -0.580079,7.501313 -1.832439,10.753159 -4.982268,12.936796 -18.543984,23.275792 -34.79192,26.524195 -4.127806,0.825257 -7.83583,1.082415 -12.356061,0.856922 z M 49.32925,85.386664 c 9.6541,-1.723355 18.373058,-5.855633 25.175633,-11.931787 6.798191,-6.072239 11.226293,-14.681839 11.226293,-21.827384 v -1.524061 l -1.028893,0.116172 c -1.322271,0.149289 -2.028059,0.513242 -2.512696,1.295717 -0.359664,0.580691 -0.378901,0.84796 -0.258328,3.588549 0.126905,2.884508 0.117513,2.989006 -0.362968,4.03852 -0.917083,2.003171 -2.317758,2.701279 -5.419811,2.701279 h -2.148099 l -0.726062,0.684761 -0.726054,0.68476 0.159177,3.479777 c 0.190036,4.154515 0.173044,4.610893 -0.198457,5.329296 -0.888269,1.717711 -2.310535,2.631224 -4.121902,2.647453 -1.081919,0.0097 -1.44988,-0.12112 -4.605486,-1.637345 -4.994542,-2.399797 -5.198517,-2.353534 -7.191527,1.631079 -1.506847,3.012613 -2.277633,3.870572 -3.901379,4.342609 -1.413156,0.410814 -1.676876,0.35581 -6.705432,-1.398467 -2.297802,-0.801629 -4.458463,-1.456917 -4.801462,-1.456205 -0.838012,0.0014 -1.389571,0.407329 -3.001073,2.206866 -0.749743,0.837224 -1.682254,1.739047 -2.072244,2.004057 -1.315937,0.894203 -3.173547,1.032211 -4.565332,0.339184 -0.323363,-0.161014 -2.386658,-1.525402 -4.585096,-3.031964 -2.198444,-1.506566 -4.297226,-2.864584 -4.663972,-3.017821 -0.976531,-0.408017 -1.790811,-0.10255 -3.282007,1.231224 l -1.274007,1.139501 0.533241,0.564922 c 0.780297,0.82665 3.483073,2.891178 4.883266,3.730109 3.530664,2.115418 8.11758,3.650471 12.994069,4.348571 2.84571,0.407388 10.207555,0.251344 13.180608,-0.279372 z M 34.73753,78.611263 c 0.291068,-0.155393 1.1895,-1.039825 1.996513,-1.965411 1.730356,-1.984566 2.846622,-2.651519 4.437806,-2.651519 0.773608,0 2.080525,0.367479 5.301928,1.490811 2.504956,0.873499 4.580199,1.487211 5.011689,1.482101 1.231054,-0.01459 1.745096,-0.572085 3.278512,-3.555774 1.119607,-2.178511 1.568645,-2.857672 2.192942,-3.316784 0.926037,-0.681012 2.448884,-1.09226 3.390514,-0.915609 0.368937,0.06918 2.239345,0.878211 4.156455,1.797768 3.941984,1.890807 4.311433,1.942515 5.486082,0.767875 0.750527,-0.750535 0.764023,-0.910831 0.454133,-5.393546 -0.119283,-1.725496 -0.115016,-2.898463 0.01223,-3.372389 0.289342,-1.077416 1.335278,-2.322379 2.420152,-2.880678 0.867974,-0.446675 1.153828,-0.48908 3.035857,-0.450349 1.790508,0.03681 2.16732,-0.01223 2.726382,-0.354798 1.058492,-0.648666 1.202381,-1.270763 1.072936,-4.638885 -0.106959,-2.783009 -0.08815,-3.006784 0.324495,-3.859181 0.747898,-1.544957 2.436996,-2.669711 4.009218,-2.669711 1.578645,0 2.663704,-1.171204 2.664928,-2.876501 0.0019,-2.435959 -0.898212,-7.227415 -1.975493,-10.517519 -2.039974,-6.230224 -4.769683,-10.260412 -9.782477,-14.443 -4.740054,-3.95502 -10.162545,-6.273624 -17.246099,-7.374268 -3.082255,-0.478921 -9.736497,-0.475732 -13.032564,0.0062 -12.007723,1.755892 -22.542092,6.972574 -30.383722,15.046209 -2.362385,2.432292 -3.39147,3.707839 -5.0378287,6.244386 -4.0995329,6.316146 -5.6070026,12.851756 -4.4751368,19.401862 1.5272544,8.838273 4.6589354,16.500267 8.3839895,20.512366 1.55797,1.678024 2.749936,1.626412 4.722873,-0.204516 1.116058,-1.035729 1.917236,-1.463413 3.026101,-1.615398 1.705179,-0.233722 1.998128,-0.07765 9.632442,5.131921 2.298366,1.568378 3.058449,1.781142 4.195114,1.174315 z m 0.999953,-23.333424 c -2.471579,-0.492562 -5.698072,-2.489519 -7.031942,-4.352247 -1.50487,-2.101515 -1.949471,-4.87688 -1.209032,-7.547132 0.487873,-1.75945 0.867685,-2.308498 1.59691,-2.308498 0.385789,0 0.676249,0.148571 0.870722,0.445379 0.264276,0.403329 0.246195,0.589061 -0.191458,1.967247 -0.493333,1.553505 -0.707967,4.357143 -0.250403,3.270742 1.022374,-2.427389 1.655188,-3.43686 3.133556,-4.99866 4.157655,-4.392275 10.711613,-7.156885 16.948112,-7.1491 2.588063,0.003 4.254577,0.316903 5.773816,1.086764 0.547597,0.277483 1.032307,0.46783 1.07715,0.422994 0.212249,-0.212249 -2.043415,-2.001342 -3.16371,-2.509303 -0.94457,-0.428291 -1.291806,-0.694523 -1.38378,-1.06098 -0.164932,-0.657147 0.0067,-1.03701 0.589491,-1.302413 0.414351,-0.188791 0.698871,-0.119431 1.952701,0.476008 4.284219,2.03457 6.05758,5.999769 4.829964,10.799705 -0.532308,2.081287 -1.585688,3.988531 -3.119297,5.647756 -4.895414,5.296409 -13.862791,8.419076 -20.4228,7.111738 z m 5.315765,-2.263537 c 3.619711,-0.449712 7.003684,-1.683151 9.857498,-3.593009 2.247049,-1.503795 5.127031,-4.403348 4.74779,-4.780063 -0.237692,-0.236107 -3.838537,-0.141897 -5.30146,0.138704 -3.595691,0.689694 -7.508306,2.451181 -10.228747,4.605057 -1.457273,1.153783 -3.195769,3.030584 -3.195769,3.45 0,0.146972 0.315674,0.200739 2.062911,0.351391 0.218404,0.01881 1.144405,-0.05859 2.057777,-0.17208 z m -5.826185,-1.634494 c 1.867949,-2.813334 5.488941,-5.558308 9.549424,-7.239147 3.299533,-1.365846 6.593725,-1.974759 10.088086,-1.864727 l 2.155766,0.06785 0.06081,-0.844568 c 0.08159,-1.132761 -0.574913,-2.458114 -1.577288,-3.184235 -1.382461,-1.001441 -2.761877,-1.397237 -5.244797,-1.504869 -3.538611,-0.153401 -6.793405,0.605882 -10.484846,2.445892 -2.355948,1.174336 -3.838775,2.25456 -5.488245,3.998151 -2.818638,2.979453 -3.488629,5.702991 -1.914621,7.783003 0.37116,0.490489 1.58431,1.284125 2.1327,1.395209 0.0117,0.0022 0.337028,-0.471304 0.722987,-1.052595 z"
       id="path1" /><path
       style="fill:#ff8485;fill-opacity:1;stroke-width:0.740706"
       d="m 177.82472,29.1942 c 5.30307,7.449509 7.72983,16.09901 6.70852,23.910752 -0.10355,0.792044 -0.0722,1.519272 0.0734,1.703594 0.54231,0.686638 0.72745,2.568642 0.40407,4.107313 -1.31844,6.27313 -5.43432,13.454833 -11.45255,19.983284 -4.22496,4.583134 -9.24129,7.426931 -15.31988,8.684957 -9.86023,2.040675 -20.82663,0.199664 -31.2573,-5.247391 -4.32607,-2.259138 -9.11533,-5.643151 -12.88184,-9.102088 -2.28541,-2.098787 -6.77408,-7.625399 -8.4455,-10.398416 -3.39696,-5.635816 -5.45616,-12.221483 -5.51581,-17.64045 -0.0689,-6.261504 0.45146,-9.457956 2.27637,-13.982872 1.97252,-4.890828 6.70932,-11.313803 10.79262,-14.634479 1.15807,-0.941679 1.41181,-1.070698 2.43894,-1.238983 1.0146,-0.166255 1.23243,-0.275172 1.89467,-0.947267 1.67211,-1.697013 6.24624,-4.194111 9.57437,-5.2268119 13.24027,-4.10839 29.75948,0.126142 42.37919,10.8634619 3.20605,2.727837 5.7061,5.478348 8.33079,9.165396 z m -8.5183,-6.446902 c -7.33604,-6.507984 -15.98292,-10.789059 -24.96747,-12.361416 -8.97878,-1.5713489 -18.47978,0.289915 -24.0873,4.718742 l -1.19602,0.944617 0.72887,0.735427 c 0.93671,0.945137 1.65978,1.273433 2.57421,1.168772 0.67862,-0.07766 0.90028,-0.228223 2.97625,-2.021468 2.18499,-1.887416 2.2728,-1.944815 3.39423,-2.21824 2.14042,-0.521882 3.5564,0.14462 5.47905,2.578974 l 1.3314,1.685738 0.9874,0.145371 0.98737,0.145355 2.63213,-2.281683 c 3.1425,-2.724117 3.51119,-2.993641 4.30521,-3.147376 1.89854,-0.367562 3.49695,0.182373 4.63237,1.593797 0.67819,0.843035 0.80359,1.212873 1.56958,4.629019 1.21237,5.40691 1.37509,5.538307 5.73732,4.632663 3.29812,-0.68471 4.44915,-0.611602 5.82599,0.37008 1.19826,0.854358 1.31856,1.095412 3.05858,6.128913 0.7951,2.300069 1.62004,4.401815 1.83319,4.670541 0.52054,0.656746 1.18092,0.838019 3.59193,0.987295 1.12171,0.06946 2.4074,0.242299 2.85708,0.384092 1.51736,0.478467 2.77701,1.850701 3.09579,3.372455 0.074,0.353558 0.28218,2.818391 0.46249,5.477405 0.18031,2.659024 0.41543,5.147762 0.52248,5.530542 0.28507,1.019234 1.02948,1.468919 3.00042,1.812468 l 1.68386,0.293517 0.11282,-0.768603 c 0.1651,-1.124702 0.11006,-4.525331 -0.0994,-6.144115 -0.52823,-4.081852 -2.16656,-8.632899 -4.64118,-12.892446 -1.44407,-2.485697 -6.12942,-8.166247 -8.38862,-10.170436 z m 3.72694,15.650379 c -0.30235,-0.132107 -1.55327,-0.288981 -2.77981,-0.348609 -2.62989,-0.127876 -3.84515,-0.590497 -4.83136,-1.839188 -0.47949,-0.607091 -1.00114,-1.860468 -2.11623,-5.084733 -0.86709,-2.507182 -1.67172,-4.516128 -1.94317,-4.851573 -0.77446,-0.957037 -1.53056,-1.014897 -4.82244,-0.368959 -2.40355,0.471621 -3.21484,0.540184 -3.96207,0.33482 -1.10839,-0.304625 -2.37499,-1.2448 -2.81998,-2.093234 -0.17438,-0.332406 -0.69877,-2.301665 -1.16537,-4.376075 -0.95943,-4.265428 -1.14783,-4.587406 -2.79769,-4.781176 -1.05417,-0.1238 -1.18832,-0.03504 -4.5141,2.986546 -1.28016,1.163081 -2.20331,1.886737 -2.6541,2.080606 -1.02484,0.440727 -2.65012,0.391549 -3.76065,-0.113778 -0.88851,-0.404301 -1.09896,-0.602346 -2.23505,-2.103289 -1.08087,-1.427925 -1.35291,-1.69324 -1.96825,-1.919639 -1.1651,-0.428616 -1.74248,-0.155955 -4.3054,2.033197 -2.1177,1.808852 -2.30498,1.932771 -3.22965,2.137277 -1.67597,0.370649 -3.60554,-0.257756 -4.58,-1.491571 -0.97845,-1.238855 -2.57008,-1.364446 -3.90909,-0.30846 -1.91283,1.5083 -5.11506,5.184451 -7.02929,8.069066 -3.62483,5.462395 -5.09567,10.102478 -5.27105,16.628689 -0.16584,6.171121 1.37549,11.863543 4.90216,18.104596 1.53455,2.715656 5.66137,7.935648 8.08249,10.22355 8.82036,8.33486 19.44342,13.368479 30.63953,14.518198 3.37297,0.346358 5.01179,0.363353 8.02279,0.08319 7.49754,-0.697624 13.56075,-3.565412 17.99946,-8.513427 5.98931,-6.676509 10.06109,-13.883038 10.90082,-19.293016 0.35122,-2.262669 -0.42808,-3.166084 -3.08775,-3.579554 -1.50453,-0.233885 -2.33672,-0.597536 -3.14327,-1.373524 -1.24029,-1.193289 -1.29938,-1.519922 -1.9429,-10.739915 -0.19374,-2.77574 -0.49787,-3.504094 -1.6786,-4.019992 z M 154.1025,52.07507 c 1.14535,2.244887 1.57802,6.014623 0.94296,8.215908 -0.71647,2.48348 -2.61889,4.552561 -5.17331,5.626529 -1.68313,0.70765 -2.3494,0.749888 -2.80138,0.177627 -0.23912,-0.302754 -0.30254,-0.622775 -0.19017,-0.959355 0.15272,-0.457377 0.30968,-0.558307 1.66249,-1.069055 1.52489,-0.575722 3.8581,-2.144984 2.72194,-1.83071 -2.53858,0.702186 -3.72299,0.831256 -5.86493,0.6391 -6.02379,-0.540408 -12.2555,-3.970165 -16.11479,-8.869137 -1.60175,-2.032853 -2.38831,-3.535228 -2.72578,-5.204619 -0.12165,-0.601723 -0.2727,-1.100079 -0.33567,-1.107476 -0.29811,-0.03501 -0.30406,2.844018 -0.009,4.038016 0.24934,1.006716 0.25564,1.444223 0.0251,1.743532 -0.41348,0.536735 -0.81799,0.637445 -1.38745,0.344632 -0.40497,-0.208153 -0.52688,-0.474425 -0.83674,-1.827432 -1.05872,-4.623103 0.95386,-8.472405 5.48154,-10.484031 1.96322,-0.872259 4.11283,-1.227723 6.36546,-1.052604 7.19059,0.558982 15.19913,5.66077 18.23909,11.619075 z m -5.07105,-2.768637 c -2.59642,-2.561864 -5.66177,-4.452977 -8.92935,-5.508794 -2.57284,-0.831338 -6.63331,-1.294275 -6.69388,-0.763169 -0.038,0.332871 2.26778,3.100268 3.39471,4.074392 2.76986,2.394274 6.57725,4.372954 9.95366,5.17286 1.80865,0.428489 4.35901,0.629545 4.68816,0.36959 0.11534,-0.0911 -0.0381,-0.372149 -1.00285,-1.83668 -0.1206,-0.183051 -0.75528,-0.861763 -1.41045,-1.508199 z m 2.3284,5.585206 c -3.36554,0.277821 -7.76399,-0.86244 -11.59974,-3.007147 -3.11691,-1.742778 -5.6365,-3.950514 -7.71597,-6.760943 l -1.28291,-1.733806 -0.70049,0.47572 c -0.9395,0.638075 -1.57269,1.974718 -1.52124,3.211393 0.071,1.705585 0.61532,3.033415 2.06978,5.048614 2.07286,2.872032 4.68604,4.95565 8.41796,6.712092 2.3818,1.120994 4.14857,1.615127 6.53921,1.828884 4.08515,0.365269 6.63773,-0.796999 7.29446,-3.321412 0.15487,-0.595282 0.0257,-2.039208 -0.22695,-2.538408 -0.006,-0.01053 -0.57875,0.02762 -1.27414,0.08503 z"
       id="path2" /><path
       style="fill:#ff5074;fill-opacity:1;stroke-width:0.740706"
       d="m 60.5438,183.32851 c -9.141684,-0.21772 -17.520717,-3.45728 -23.163069,-8.95548 -0.572086,-0.55747 -1.173077,-0.96813 -1.407883,-0.96201 -0.874669,0.0228 -2.492385,-0.95663 -3.530523,-2.13745 -4.232468,-4.81422 -7.51623,-12.41252 -9.137161,-21.1425 -1.137931,-6.12866 -0.409141,-11.84876 2.225734,-17.4692 4.274083,-9.11706 12.318728,-16.79397 22.929471,-21.88134 4.40075,-2.10996 9.97964,-3.9168 15.005711,-4.85989 3.049674,-0.57224 10.163881,-0.85463 13.385477,-0.53132 6.547527,0.6571 13.053986,2.95434 17.428279,6.15344 5.054431,3.69649 7.301794,6.02832 9.831134,10.20058 2.73386,4.50964 5.03814,12.15048 5.25019,17.4093 0.06,1.4914 0.0113,1.77187 -0.46936,2.69503 -0.47482,0.91193 -0.51813,1.1516 -0.37682,2.0845 0.3568,2.35553 -0.38462,7.51387 -1.55191,10.79721 -4.64383,13.0621 -17.931825,23.75062 -34.089702,27.42086 -4.104925,0.93243 -7.804999,1.28602 -12.329568,1.17827 z m 10.26542,-2.95722 c 9.605969,-1.97407 18.214411,-6.33191 24.856515,-12.58308 6.637825,-6.24714 10.840315,-14.96909 10.654315,-22.11221 l -0.0397,-1.52355 -1.02552,0.14291 c -1.31794,0.18367 -2.01401,0.56587 -2.47811,1.36069 -0.34443,0.58986 -0.3567,0.85754 -0.16483,3.59406 0.20194,2.88022 0.19526,2.98493 -0.25773,4.0466 -0.86463,2.02636 -2.24666,2.7607 -5.347663,2.84144 l -2.147372,0.0559 -0.707986,0.70343 -0.707988,0.70343 0.249706,3.47445 c 0.298112,4.14816 0.293009,4.60483 -0.05967,5.33265 -0.84325,1.74025 -2.241253,2.69049 -4.05159,2.75386 -1.081286,0.0382 -1.452541,-0.0833 -4.646548,-1.51691 -5.055312,-2.26897 -5.258014,-2.21741 -7.146626,1.81773 -1.427923,3.05082 -2.176115,3.92855 -3.787022,4.44269 -1.401983,0.44746 -1.667046,0.39934 -6.739563,-1.22345 -2.31789,-0.74154 -4.494876,-1.34037 -4.83774,-1.33072 -0.837703,0.0228 -1.378497,0.44336 -2.942611,2.28423 -0.727695,0.85645 -1.636415,1.78225 -2.019375,2.05732 -1.292214,0.92816 -3.145602,1.11447 -4.554955,0.45791 -0.327445,-0.15254 -2.425557,-1.46276 -4.662467,-2.91159 -2.236915,-1.44882 -4.370336,-2.75175 -4.740947,-2.89539 -0.986821,-0.38246 -1.792873,-0.0559 -3.248845,1.31625 l -1.243913,1.17227 0.547765,0.55085 c 0.801551,0.80605 3.557152,2.79954 4.978708,3.60172 3.584533,2.02281 8.209853,3.43794 13.102861,4.00887 2.855351,0.33318 10.210639,-0.0145 13.16887,-0.62238 z m -14.763142,-6.39327 c 0.286924,-0.16292 1.162029,-1.07044 1.944675,-2.01672 1.678111,-2.02893 2.776637,-2.72472 4.367282,-2.76614 0.773346,-0.0201 2.089386,0.3132 5.338938,1.3523 2.526845,0.80799 4.61736,1.36748 5.048572,1.35114 1.230255,-0.0466 1.729612,-0.61732 3.18484,-3.63992 1.062526,-2.20691 1.49373,-2.89753 2.105864,-3.37275 0.90799,-0.70488 2.419618,-1.15563 3.365529,-1.00355 0.370616,0.0596 2.261443,0.81963 4.201851,1.68896 3.989866,1.78757 4.360537,1.82964 5.504212,0.62482 0.730728,-0.76981 0.74005,-0.93041 0.313576,-5.40353 -0.164156,-1.72182 -0.19042,-2.8945 -0.07554,-3.37158 0.261202,-1.08458 1.274379,-2.35634 2.344352,-2.94269 0.856046,-0.46912 1.1407,-0.51895 3.0231,-0.52922 1.790859,-0.01 2.166272,-0.0686 2.716224,-0.42565 1.041257,-0.676 1.168907,-1.30163 0.951827,-4.66525 -0.17937,-2.77927 -0.16634,-3.00347 0.22392,-3.86631 0.70745,-1.56391 2.36668,-2.73224 3.93838,-2.77317 1.57811,-0.0411 2.63231,-1.24015 2.58915,-2.94489 -0.0614,-2.43519 -1.08605,-7.20159 -2.2486,-10.46254 -2.20147,-6.17501 -5.035152,-10.13278 -10.155135,-14.18347 -4.841392,-3.83029 -10.322404,-6.00696 -17.432207,-6.92284 -3.093682,-0.39853 -9.745584,-0.22213 -13.027993,0.34525 -11.957948,2.06784 -22.352956,7.55697 -29.981768,15.83199 -2.29827,2.49296 -3.293804,3.79487 -4.873577,6.37341 -3.933731,6.42072 -5.270564,12.99336 -3.968579,19.51178 1.756801,8.79553 5.086866,16.3734 8.915095,20.28718 1.601122,1.6369 2.791341,1.55428 4.715949,-0.32739 1.08872,-1.06443 1.878493,-1.51283 2.983027,-1.69362 1.698517,-0.27803 1.995431,-0.12959 9.762765,4.87944 2.338411,1.50802 3.103775,1.70092 4.224259,1.06472 z m 0.392232,-23.35155 c -2.483563,-0.42806 -5.760944,-2.34035 -7.14285,-4.16773 -1.559064,-2.06164 -2.075758,-4.82447 -1.405078,-7.5131 0.441908,-1.77156 0.8073,-2.33031 1.536278,-2.34929 0.385658,-0.01 0.679887,0.13093 0.88202,0.42256 0.274685,0.39632 0.261445,0.58246 -0.140185,1.97157 -0.452727,1.56582 -0.594308,4.37409 -0.165179,3.27615 0.958842,-2.45318 1.565164,-3.47878 3.002377,-5.07853 4.041913,-4.49901 10.521686,-7.43329 16.756274,-7.58785 2.587264,-0.0644 4.261381,0.20605 5.800149,0.9361 0.554632,0.26314 1.044133,0.4408 1.087795,0.39482 0.206652,-0.21771 -2.09482,-1.94747 -3.227951,-2.4261 -0.955404,-0.40357 -1.309452,-0.66067 -1.410934,-1.0246 -0.181982,-0.65263 -0.0203,-1.03683 0.555389,-1.31732 0.409296,-0.19951 0.695525,-0.13759 1.964435,0.42501 4.335723,1.92237 6.211704,5.84006 5.109443,10.67033 -0.477946,2.09443 -1.481324,4.02844 -2.971223,5.72703 -4.755889,5.42205 -13.638943,8.77708 -20.23076,7.64095 z m 5.255043,-2.40115 c 3.606778,-0.54378 6.957498,-1.86489 9.76063,-3.84837 2.207143,-1.56179 5.010669,-4.53533 4.621755,-4.90204 -0.243759,-0.22985 -3.840931,-0.0419 -5.296054,0.27665 -3.576519,0.78306 -7.441956,2.6458 -10.105409,4.86976 -1.426746,1.19133 -3.115799,3.11274 -3.104881,3.53203 0.0038,0.14691 0.320792,0.19244 2.071359,0.29757 0.218819,0.0131 1.142492,-0.0884 2.0526,-0.2256 z m -5.866757,-1.48227 c 1.794083,-2.861 5.342395,-5.69931 9.357749,-7.48528 3.262861,-1.45127 6.540088,-2.14572 10.036127,-2.12669 l 2.156802,0.0118 0.03884,-0.84587 c 0.05206,-1.13449 -0.638701,-2.4423 -1.65964,-3.14209 -1.408061,-0.96512 -2.797311,-1.32487 -5.282191,-1.36784 -3.541405,-0.0612 -6.775332,0.78251 -10.417626,2.71799 -2.324582,1.23527 -3.778787,2.35372 -5.382311,4.13966 -2.740126,3.05182 -3.338995,5.79187 -1.711377,7.83021 0.383802,0.48065 1.6172,1.24244 2.168296,1.33922 0.01175,0.002 0.324645,-0.47992 0.695342,-1.07105 z"
       id="path3" /><path
       style="fill:#ff7655;fill-opacity:1;stroke-width:0.740706"
       d="m 136.93325,176.06341 c -8.28585,-3.86812 -14.66046,-10.198 -17.62199,-17.49839 -0.30027,-0.7402 -0.68594,-1.35753 -0.90347,-1.44616 -0.81028,-0.33016 -1.89897,-1.87644 -2.37594,-3.37463 -1.94467,-6.10809 -1.90307,-14.38549 0.11573,-23.03214 1.41726,-6.07015 4.38036,-11.01694 9.04932,-15.1075 7.57363,-6.63542 18.0229,-10.43855 29.78335,-10.84002 4.87759,-0.1665 10.71262,0.41744 15.69467,1.57067 3.02297,0.69976 9.65249,3.29615 12.47351,4.88516 5.73345,3.22949 10.77104,7.94477 13.49378,12.63043 3.14608,5.41419 4.26873,8.4519 4.91106,13.2885 0.69426,5.22771 -0.26155,13.15099 -2.17778,18.05287 -0.54352,1.39012 -0.7007,1.62745 -1.51147,2.28011 -0.80086,0.64473 -0.93673,0.84686 -1.18168,1.75806 -0.61851,2.30071 -3.36773,6.72788 -5.75455,9.26678 -9.4955,10.10044 -25.95598,14.55779 -42.22854,11.43509 -4.13407,-0.79332 -7.66502,-1.95435 -11.766,-3.86883 z m 10.58928,1.41105 c 9.59073,2.0469 19.2244,1.5101 27.81686,-1.55001 8.58693,-3.05815 15.93641,-9.3604 18.6327,-15.97771 l 0.57508,-1.41139 -0.99666,-0.28067 c -1.28086,-0.36068 -2.0718,-0.28995 -2.81587,0.25181 -0.55219,0.40204 -0.67086,0.6423 -1.59333,3.22579 -0.97091,2.71915 -1.01904,2.81238 -1.86002,3.60301 -1.60517,1.50904 -3.16571,1.62701 -6.03846,0.45648 l -1.9893,-0.81056 -0.93076,0.36018 -0.93078,0.36017 -1.16564,3.2826 c -1.39167,3.9191 -1.57961,4.33533 -2.19473,4.86045 -1.47076,1.25555 -3.13259,1.56487 -4.81618,0.89639 -1.00571,-0.39899 -1.29699,-0.65926 -3.6472,-3.25413 -3.71977,-4.10702 -3.92613,-4.14115 -7.27536,-1.20313 -2.53223,2.22131 -3.56978,2.725 -5.2516,2.54944 -1.46371,-0.15279 -1.68718,-0.30324 -5.68204,-3.8253 -1.82546,-1.60942 -3.57913,-3.03156 -3.89704,-3.16033 -0.77643,-0.31533 -1.44055,-0.14712 -3.61196,0.91131 -1.01023,0.49242 -2.2141,0.97571 -2.67526,1.07397 -1.55607,0.33155 -3.32843,-0.24159 -4.35583,-1.40856 -0.2387,-0.27114 -1.63464,-2.31322 -3.10207,-4.53797 -1.46744,-2.22474 -2.89864,-4.27432 -3.18045,-4.55462 -0.75037,-0.74634 -1.61973,-0.77071 -3.50397,-0.0982 l -1.60981,0.57453 0.28065,0.72438 c 0.4107,1.05996 2.13464,3.99173 3.11477,5.29699 2.47143,3.29129 6.14003,6.4437 10.39261,8.93026 2.48161,1.45107 9.35812,4.08447 12.31165,4.71483 z m -10.95642,-11.78055 c 0.32819,-0.0341 1.49394,-0.5141 2.59055,-1.06675 2.35129,-1.18493 3.63671,-1.38138 5.11026,-0.78097 0.71642,0.29191 1.78806,1.12539 4.34745,3.38123 1.99018,1.75414 3.68043,3.10556 4.08195,3.26364 1.14556,0.45101 1.83196,0.1287 4.37788,-2.0558 1.85888,-1.59499 2.53099,-2.05451 3.28238,-2.24412 1.11455,-0.28124 2.68,-0.0875 3.48537,0.43144 0.31555,0.2033 1.74241,1.65829 3.17083,3.23327 2.93709,3.23849 3.25972,3.42577 4.79077,2.78121 0.97825,-0.41185 1.05123,-0.5552 2.45575,-4.82347 0.54063,-1.64295 0.98719,-2.72759 1.28383,-3.11848 0.67451,-0.88858 2.1129,-1.64685 3.32824,-1.75451 0.97235,-0.0861 1.25307,-0.0175 2.98136,0.72849 1.64426,0.70971 2.01171,0.80652 2.65872,0.70019 1.22501,-0.2013 1.59301,-0.72312 2.74404,-3.8911 0.95109,-2.61762 1.05299,-2.81775 1.75672,-3.45145 1.27559,-1.14853 3.26424,-1.55277 4.72023,-0.95951 1.46194,0.59568 2.90873,-0.0795 3.55334,-1.65828 0.92104,-2.25513 1.89536,-7.03207 2.1392,-10.48545 0.46173,-6.53943 -0.54544,-11.30171 -3.60942,-17.06661 -2.89726,-5.45125 -7.044,-9.64457 -13.18859,-13.33674 -2.6737,-1.60657 -8.83723,-4.11451 -12.07141,-4.91213 -11.78262,-2.90489 -23.50669,-2.04887 -33.81513,2.46898 -3.10555,1.36108 -4.53986,2.15401 -7.02166,3.88182 -6.1798,4.30231 -10.04196,9.78596 -11.46537,16.27894 -1.92066,8.76121 -1.91165,17.0385 0.0241,22.15961 0.80963,2.14187 1.93295,2.54383 4.45092,1.59272 1.42436,-0.53803 2.3277,-0.63179 3.41195,-0.35412 1.66732,0.42699 1.8797,0.68211 6.9839,8.38724 1.53665,2.3197 2.16026,2.80353 3.44187,2.67047 z m 9.73063,-21.23119 c -2.10301,-1.38876 -4.33746,-4.45558 -4.86985,-6.68393 -0.60064,-2.51401 0.0349,-5.25197 1.72816,-7.44543 1.11572,-1.44528 1.67463,-1.81043 2.34995,-1.53526 0.35727,0.14557 0.57019,0.39276 0.63829,0.74101 0.0925,0.47322 0.006,0.6384 -0.91961,1.74957 -1.04307,1.25251 -2.29975,3.7679 -1.46608,2.93446 1.86274,-1.86216 2.82969,-2.55822 4.7881,-3.44672 5.50768,-2.49874 12.62033,-2.58592 18.39286,-0.22544 2.3956,0.97935 3.82048,1.89889 4.93691,3.18511 0.40242,0.46359 0.77947,0.82277 0.83792,0.79817 0.27665,-0.11647 -1.13718,-2.62446 -1.98297,-3.51759 -0.71315,-0.75305 -0.93426,-1.13064 -0.88115,-1.5047 0.0952,-0.6708 0.39779,-0.95771 1.03736,-0.9837 0.45496,-0.0185 0.69228,0.1531 1.62874,1.17765 3.19978,3.50077 3.34584,7.84199 0.39777,11.82387 -1.2783,1.72656 -2.97349,3.09534 -5.01982,4.05322 -6.53207,3.05765 -16.01483,2.56575 -21.59658,-1.12029 z m 5.77691,-0.0904 c 3.52183,0.94939 7.12105,1.08404 10.48457,0.39222 2.64838,-0.54474 6.40957,-2.14322 6.20051,-2.63518 -0.13103,-0.30835 -3.50123,-1.57984 -4.96189,-1.872 -3.59013,-0.71807 -7.87818,-0.56318 -11.21026,0.40494 -1.78491,0.51861 -4.10307,1.60067 -4.26133,1.98908 -0.0555,0.1361 0.21659,0.30502 1.77781,1.10383 0.19517,0.0998 1.08192,0.37756 1.97059,0.61711 z m -4.77873,-3.71211 c 2.79144,-1.9005 7.18054,-3.07622 11.57509,-3.10063 3.571,-0.0198 6.85144,0.65929 10.04597,2.07973 l 1.97078,0.87633 0.37499,-0.75918 c 0.503,-1.01823 0.39513,-2.49333 -0.25915,-3.54402 -0.90239,-1.44906 -2.03048,-2.3361 -4.28925,-3.37268 -3.21912,-1.47731 -6.51982,-2.00231 -10.63268,-1.69125 -2.62491,0.19853 -4.40573,0.63938 -6.59118,1.63167 -3.73453,1.69562 -5.38269,3.96501 -4.7099,6.48519 0.15864,0.59428 0.98263,1.78702 1.44857,2.09682 0.0101,0.006 0.48995,-0.3093 1.06672,-0.70197 z"
       id="path4" /></g></svg>
