<?xml version="1.0" encoding="UTF-8" standalone="no"?>
<!-- Created with Inkscape (http://www.inkscape.org/) -->

<svg
   width="300"
   height="300"
   viewBox="0 0 79.375 79.375"
   version="1.1"
   id="svg1"
   xml:space="preserve"
   inkscape:export-filename="donuts_fundo_colorido.png"
   inkscape:export-xdpi="96"
   inkscape:export-ydpi="96"
   xmlns:inkscape="http://www.inkscape.org/namespaces/inkscape"
   xmlns:sodipodi="http://sodipodi.sourceforge.net/DTD/sodipodi-0.dtd"
   xmlns="http://www.w3.org/2000/svg"
   xmlns:svg="http://www.w3.org/2000/svg"><sodipodi:namedview
     id="namedview1"
     pagecolor="#ffffff"
     bordercolor="#000000"
     borderopacity="0.25"
     inkscape:showpageshadow="2"
     inkscape:pageopacity="0.0"
     inkscape:pagecheckerboard="0"
     inkscape:deskcolor="#d1d1d1"
     inkscape:document-units="mm" /><defs
     id="defs1" /><g
     inkscape:label="Camada 1"
     inkscape:groupmode="layer"
     id="layer1"><path
       style="fill:#ff4b4e;fill-opacity:1;stroke-width:0.278364"
       d="M 18.117386,34.969602 C 14.685162,34.798383 11.56901,33.499376 9.5030729,31.378609 9.2936038,31.163581 9.0718399,31.003425 8.9835688,31.003425 c -0.3288194,0 -0.9269837,-0.383766 -1.3054407,-0.837534 C 6.1351665,28.315878 4.9758501,25.429217 4.4522984,22.133677 4.084753,19.820123 4.4145022,17.678322 5.4593559,15.592604 7.1542348,12.209313 10.251551,9.4039383 14.287573,7.5965092 c 1.673918,-0.7496226 3.787474,-1.3738377 5.684899,-1.6789711 1.151302,-0.1851459 3.826735,-0.2216405 5.033867,-0.068663 2.453348,0.3109074 4.875229,1.2375884 6.487274,2.4822212 1.862686,1.4381472 2.684169,2.3361527 3.593578,3.9283327 0.982944,1.720933 1.773869,4.613988 1.802088,6.591701 0.0079,0.560881 -0.01308,0.665765 -0.202696,1.007882 -0.187296,0.33795 -0.205913,0.427563 -0.161953,0.779417 0.111,0.888419 -0.217998,2.819055 -0.688645,4.041126 -1.872377,4.861753 -6.968982,8.747233 -13.075089,9.968009 -1.551264,0.310137 -2.944769,0.40678 -4.64351,0.322038 z m 3.885452,-1.010548 c 3.628089,-0.647651 6.904746,-2.200594 9.461208,-4.484062 2.554816,-2.281998 4.218933,-5.517556 4.218933,-8.20291 v -0.572756 l -0.386666,0.04366 c -0.496921,0.05611 -0.762162,0.19288 -0.944292,0.486941 -0.135166,0.218227 -0.142394,0.31867 -0.09708,1.348607 0.0477,1.08402 0.04417,1.123292 -0.136407,1.517708 -0.344646,0.752807 -0.871031,1.015163 -2.036808,1.015163 h -0.807273 l -0.27286,0.257337 -0.272857,0.25734 0.05982,1.307728 c 0.07141,1.561301 0.06504,1.732811 -0.07459,2.002793 -0.333818,0.645531 -0.868318,0.988836 -1.549044,0.994935 -0.406594,0.0036 -0.544877,-0.04552 -1.730779,-0.615328 -1.876991,-0.901864 -1.953646,-0.884477 -2.702635,0.612973 -0.566286,1.132164 -0.855953,1.454592 -1.46617,1.631989 -0.531076,0.154386 -0.630183,0.133716 -2.519956,-0.525556 -0.863533,-0.301259 -1.675527,-0.547522 -1.804429,-0.547255 -0.314932,5.27e-4 -0.522212,0.153079 -1.127828,0.829359 -0.281759,0.314636 -0.632205,0.653548 -0.778766,0.753141 -0.49454,0.336048 -1.192645,0.387913 -1.71569,0.127468 -0.121522,-0.06051 -0.896925,-0.573257 -1.723115,-1.139436 -0.826187,-0.566179 -1.614926,-1.076533 -1.752752,-1.134121 -0.366988,-0.153336 -0.673001,-0.03854 -1.233405,0.462705 l -0.478781,0.428231 0.200396,0.212302 c 0.293242,0.310662 1.308967,1.086528 1.835171,1.401805 1.326854,0.794992 3.050653,1.371877 4.883278,1.634229 1.069442,0.1531 3.836084,0.09446 4.95338,-0.104984 z M 16.51915,31.412803 c 0.109386,-0.05839 0.447024,-0.390775 0.750306,-0.738618 0.650282,-0.745816 1.069783,-0.996463 1.667763,-0.996463 0.290728,0 0.781879,0.138102 1.992507,0.56026 0.941384,0.328268 1.721278,0.558906 1.883435,0.556986 0.46264,-0.0055 0.655822,-0.214994 1.232092,-1.33629 0.420758,-0.818702 0.58951,-1.073936 0.824126,-1.246474 0.348012,-0.25593 0.920311,-0.41048 1.274182,-0.344094 0.13865,0.026 0.841564,0.330039 1.56203,0.675617 1.481429,0.71058 1.620272,0.730013 2.061715,0.288573 0.282054,-0.282057 0.287126,-0.342298 0.170667,-2.026939 -0.04482,-0.648454 -0.04323,-1.089266 0.0046,-1.267371 0.108736,-0.404902 0.501807,-0.872769 0.909512,-1.082582 0.326192,-0.167864 0.433618,-0.1838 1.1409,-0.169245 0.672887,0.01383 0.814496,-0.0046 1.024596,-0.133336 0.39779,-0.243774 0.451865,-0.477563 0.403219,-1.743331 -0.0402,-1.045877 -0.03313,-1.129974 0.121948,-1.450311 0.281066,-0.580608 0.915843,-1.0033 1.506697,-1.0033 0.593268,0 1.001041,-0.440148 1.001502,-1.081013 C 36.051672,17.959419 35.71339,16.158751 35.30854,14.922303 34.541915,12.580933 33.516067,11.066355 31.632218,9.4945047 29.850868,8.0081756 27.813052,7.136825 25.150994,6.7231939 23.992657,6.5432114 21.491938,6.54441 20.25325,6.7255545 15.740649,7.3854326 11.781747,9.3459039 8.8347984,12.380043 7.9469951,13.294118 7.5602568,13.773479 6.9415406,14.726735 5.4009031,17.100393 4.8343836,19.55653 5.259748,22.018113 c 0.5739548,3.321496 1.7508662,6.200935 3.1507727,7.708715 0.5854973,0.630616 1.033448,0.611219 1.7748933,-0.07686 0.419424,-0.389236 0.720513,-0.549963 1.137233,-0.60708 0.640821,-0.08783 0.750914,-0.02919 3.619951,1.928618 0.863746,0.589409 1.149391,0.669368 1.576558,0.441318 z m 0.375791,-8.768891 c -0.92884,-0.18511 -2.141382,-0.935583 -2.642662,-1.635611 -0.565543,-0.789766 -0.732627,-1.83277 -0.454364,-2.836273 0.183347,-0.661217 0.326083,-0.867553 0.600132,-0.867553 0.144982,0 0.254139,0.05584 0.327225,0.167377 0.09932,0.151574 0.09253,0.221373 -0.07196,0.739308 -0.185399,0.58382 -0.266061,1.637449 -0.0941,1.229171 0.384216,-0.912233 0.622033,-1.291601 1.177617,-1.878537 1.562479,-1.650653 4.02551,-2.689617 6.369239,-2.686691 0.972614,0.0011 1.598904,0.119095 2.169847,0.408415 0.205791,0.104276 0.387949,0.175815 0.404801,0.158964 0.07977,-0.07977 -0.767932,-0.752119 -1.188948,-0.943016 -0.354977,-0.160955 -0.485471,-0.261007 -0.520036,-0.398724 -0.06199,-0.246962 0.0025,-0.389717 0.221536,-0.489458 0.155716,-0.07095 0.26264,-0.04488 0.733841,0.178887 1.610045,0.764608 2.276489,2.254762 1.81514,4.058618 -0.200046,0.782165 -0.595915,1.498922 -1.172258,2.122473 -1.839737,1.990433 -5.20975,3.163957 -7.675055,2.67265 z m 1.997707,-0.850657 c 1.360317,-0.169005 2.632042,-0.632541 3.704527,-1.350282 0.844461,-0.565138 1.926782,-1.654814 1.78426,-1.796387 -0.08933,-0.08874 -1.442553,-0.05333 -1.992333,0.05213 -1.35129,0.259192 -2.821681,0.921174 -3.844046,1.730618 -0.547655,0.4336 -1.200995,1.138918 -1.200995,1.296537 0,0.05524 0.118632,0.07544 0.775259,0.132057 0.08208,0.007 0.430075,-0.02203 0.773328,-0.06467 z M 16.70312,21.178999 c 0.701992,-1.057273 2.062789,-2.088857 3.588752,-2.72053 1.239992,-0.513297 2.477975,-0.742132 3.791185,-0.70078 l 0.810155,0.02549 0.02285,-0.317395 c 0.03066,-0.425698 -0.216061,-0.923777 -0.592761,-1.196658 -0.51954,-0.37635 -1.037937,-0.525093 -1.971039,-0.565542 -1.329838,-0.05765 -2.553016,0.227694 -3.94029,0.919185 -0.885385,0.441326 -1.442643,0.847281 -2.062527,1.502538 -1.059267,1.119703 -1.311056,2.143231 -0.71953,2.924916 0.139484,0.184331 0.595396,0.482585 0.801485,0.524331 0.0044,8.57e-4 0.126658,-0.17712 0.271705,-0.395573 z"
       id="path1" /><path
       style="fill:#ff8485;fill-opacity:1;stroke-width:0.278364"
       d="m 72.478823,13.800956 c 1.992939,2.799586 2.90494,6.050139 2.521122,8.985855 -0.03895,0.297657 -0.02715,0.570956 0.02761,0.640225 0.203802,0.258045 0.273378,0.965317 0.151851,1.543562 -0.49548,2.357494 -2.042259,5.056436 -4.303958,7.509882 -1.587778,1.722379 -3.472954,2.791102 -5.757339,3.263878 -3.705555,0.766902 -7.826818,0.07504 -11.746749,-1.972012 -1.625773,-0.849004 -3.425616,-2.120742 -4.841101,-3.42064 -0.858876,-0.788742 -2.545755,-2.865687 -3.173889,-3.907808 -1.276604,-2.117987 -2.05047,-4.592935 -2.072885,-6.629427 -0.0259,-2.353125 0.169662,-3.554378 0.855477,-5.254878 0.74129,-1.838014 2.521418,-4.251819 4.055956,-5.4997582 0.435213,-0.3538894 0.53057,-0.4023761 0.916573,-0.465619 0.381296,-0.062472 0.463158,-0.103418 0.712033,-0.3559916 0.628393,-0.6377513 2.347388,-1.5761808 3.598127,-1.9642783 4.975802,-1.5439666 11.183856,0.047395 15.926443,4.0825781 1.204865,1.025144 2.144402,2.058808 3.130782,3.444432 z m -3.201241,-2.4228 C 66.520636,8.9324026 63.271068,7.3235396 59.8946,6.7326354 56.520302,6.14211 52.949749,6.841588 50.842396,8.5059768 l -0.449473,0.3549957 0.273914,0.2763786 c 0.352024,0.3551911 0.62376,0.4785662 0.967411,0.4392345 0.25503,-0.029186 0.338333,-0.085767 1.118498,-0.7596854 0.821137,-0.7093047 0.854137,-0.7308768 1.275579,-0.8336316 0.804388,-0.1961283 1.336524,0.054349 2.059072,0.9691995 l 0.500351,0.633514 0.371074,0.054628 0.371062,0.054628 0.989176,-0.8574753 c 1.180977,-1.0237446 1.319533,-1.1250348 1.617932,-1.1828106 0.713486,-0.1381324 1.314183,0.068534 1.740882,0.5989626 0.254869,0.3168186 0.301996,0.4558073 0.589863,1.7396237 0.455617,2.0319605 0.516769,2.0813415 2.15613,1.7409925 1.239461,-0.257319 1.672027,-0.229845 2.189456,0.13908 0.450315,0.321074 0.495525,0.411664 1.149438,2.303296 0.298808,0.864383 0.608823,1.654238 0.68893,1.755226 0.195619,0.246811 0.4438,0.314935 1.349877,0.371035 0.421547,0.02611 0.904718,0.09106 1.073709,0.144345 0.570237,0.179812 1.043624,0.695508 1.163425,1.267395 0.0278,0.13287 0.106046,1.059175 0.173807,2.058454 0.06776,0.999283 0.156121,1.934572 0.196355,2.078423 0.107131,0.383038 0.386889,0.552032 1.127578,0.681139 l 0.632809,0.110307 0.04244,-0.288847 c 0.06207,-0.422671 0.04139,-1.700657 -0.03736,-2.309008 -0.198522,-1.533994 -0.81422,-3.244315 -1.744201,-4.845088 -0.542694,-0.934145 -2.303482,-3.068942 -3.152508,-3.822134 z m 1.400614,5.881541 c -0.113628,-0.04965 -0.583732,-0.108601 -1.044677,-0.13101 -0.988331,-0.04805 -1.44504,-0.221913 -1.815665,-0.691182 -0.180192,-0.228149 -0.376238,-0.699179 -0.795295,-1.910884 -0.32586,-0.942218 -0.628247,-1.697197 -0.73026,-1.82326 -0.291047,-0.359663 -0.575196,-0.381408 -1.812312,-0.138659 -0.903274,0.17724 -1.208164,0.203007 -1.488979,0.125828 -0.416541,-0.11448 -0.892541,-0.467806 -1.059771,-0.786654 -0.06554,-0.124922 -0.262603,-0.864985 -0.437956,-1.644565 C 61.132721,8.6563277 61.061917,8.535325 60.441886,8.4625054 60.04572,8.4159791 59.995306,8.4493394 58.74545,9.5848747 58.264356,10.02197 57.917429,10.293925 57.748018,10.366782 57.362876,10.532411 56.752082,10.51393 56.334734,10.324022 56.000827,10.172082 55.921737,10.097655 55.494785,9.5335896 55.088585,8.9969621 54.986351,8.8972547 54.7551,8.8121725 54.317247,8.6510956 54.100262,8.753564 53.137096,9.5762659 52.341247,10.256046 52.270866,10.302616 51.923368,10.379471 51.293523,10.518764 50.568376,10.282598 50.202167,9.8189268 49.834455,9.353355 49.236308,9.306157 48.733098,9.7030038 48.01424,10.269836 46.810817,11.651364 46.091433,12.735426 c -1.36224,2.052813 -1.914994,3.796595 -1.980905,6.249198 -0.06232,2.319158 0.516922,4.458417 1.842273,6.803855 0.576697,1.020566 2.12759,2.982282 3.037466,3.842094 3.314763,3.132308 7.306996,5.023984 11.514586,5.456058 1.26759,0.130164 1.883472,0.136551 3.01503,0.03127 2.817637,-0.262172 5.09624,-1.33991 6.764342,-3.199415 2.250832,-2.509086 3.78104,-5.217359 4.096618,-7.250473 0.13199,-0.85033 -0.160873,-1.18984 -1.1604,-1.345226 -0.565413,-0.08789 -0.878157,-0.224559 -1.181267,-0.516181 -0.466112,-0.448448 -0.488318,-0.571199 -0.730154,-4.036148 -0.07282,-1.043145 -0.187105,-1.316868 -0.630832,-1.510746 z m -7.114373,5.140077 c 0.430433,0.843647 0.593032,2.260345 0.354371,3.087606 -0.269254,0.933312 -0.984199,1.710889 -1.944172,2.114495 -0.632533,0.26594 -0.882923,0.281814 -1.052781,0.06675 -0.08987,-0.113778 -0.113697,-0.234044 -0.07146,-0.360534 0.05739,-0.171885 0.116379,-0.209815 0.624777,-0.40176 0.573067,-0.21636 1.449906,-0.806101 1.022927,-0.687995 -0.954019,0.263888 -1.399129,0.312393 -2.204088,0.24018 -2.263791,-0.20309 -4.605718,-1.492021 -6.05607,-3.333096 -0.601951,-0.763962 -0.897547,-1.328567 -1.024372,-1.955937 -0.04571,-0.226133 -0.102484,-0.41342 -0.126146,-0.416199 -0.112033,-0.01316 -0.114269,1.068805 -0.0033,1.517519 0.0937,0.378332 0.09607,0.542752 0.0094,0.655235 -0.155389,0.201709 -0.307407,0.239556 -0.521415,0.129514 -0.152191,-0.07822 -0.198006,-0.178292 -0.314454,-0.686763 -0.397876,-1.7374 0.358469,-3.183999 2.060007,-3.939986 0.737795,-0.327802 1.545635,-0.461388 2.392192,-0.395576 2.702283,0.21007 5.711957,2.127364 6.8544,4.366543 z M 61.65808,21.359297 c -0.975755,-0.962769 -2.127739,-1.673464 -3.355723,-2.070249 -0.966892,-0.312425 -2.492852,-0.486399 -2.515614,-0.286805 -0.01428,0.125095 0.852251,1.165105 1.275759,1.53119 1.040937,0.899788 2.471785,1.643392 3.740668,1.944002 0.679705,0.16103 1.638151,0.236589 1.761849,0.138896 0.04335,-0.03424 -0.01432,-0.139857 -0.376879,-0.690241 -0.04532,-0.06879 -0.283842,-0.323856 -0.53006,-0.566793 z m 0.875032,2.098966 c -1.264798,0.104405 -2.917771,-0.324112 -4.359276,-1.13011 -1.171361,-0.654951 -2.118243,-1.484636 -2.899725,-2.540818 l -0.482129,-0.651578 -0.26325,0.178779 c -0.353071,0.239794 -0.59103,0.742115 -0.571694,1.206868 0.02668,0.640973 0.231242,1.139982 0.77784,1.89731 0.778999,1.079333 1.761052,1.862374 3.16354,2.52246 0.895098,0.421278 1.559066,0.606978 2.457488,0.68731 1.535233,0.13727 2.494513,-0.29952 2.741317,-1.248214 0.0582,-0.223712 0.0097,-0.766352 -0.08529,-0.953955 -0.0023,-0.0039 -0.217499,0.01041 -0.478832,0.03195 z"
       id="path2" /><path
       style="fill:#ff5074;fill-opacity:1;stroke-width:0.278364"
       d="M 19.286795,72.563589 C 15.851275,72.48176 12.702365,71.264313 10.581923,69.198048 10.366929,68.988545 10.141072,68.834216 10.05283,68.836515 9.7241223,68.844992 9.116171,68.477007 8.7260305,68.033247 7.1354347,66.224019 5.9013699,63.368517 5.2922106,60.08772 4.8645668,57.784519 5.1384521,55.634859 6.1286594,53.522651 7.7348951,50.096386 10.758138,47.21134 14.745742,45.299464 c 1.653838,-0.792939 3.75043,-1.471966 5.639269,-1.826387 1.146092,-0.215052 3.81967,-0.321176 5.030373,-0.199673 2.460614,0.246943 4.905794,1.110264 6.549688,2.312513 1.899498,1.389171 2.744075,2.265492 3.694622,3.833461 1.027407,1.694759 1.893374,4.56625 1.973064,6.542558 0.02254,0.56048 0.0042,0.665883 -0.17639,1.012815 -0.178441,0.34271 -0.194717,0.43278 -0.141611,0.783372 0.134088,0.885227 -0.144544,2.823773 -0.583221,4.057679 -1.745189,4.908844 -6.738926,8.925678 -12.811189,10.304982 -1.542665,0.350416 -2.933182,0.483297 -4.633552,0.442805 z m 3.857829,-1.111348 c 3.610001,-0.74187 6.845125,-2.379583 9.341282,-4.728821 2.494548,-2.347729 4.073878,-5.625509 4.003978,-8.309952 l -0.01492,-0.572562 -0.385399,0.05372 c -0.495292,0.06903 -0.756881,0.212658 -0.931294,0.511358 -0.129438,0.221675 -0.13405,0.322271 -0.06195,1.350677 0.0759,1.08241 0.07337,1.121762 -0.09686,1.520747 -0.324935,0.761522 -0.844314,1.037493 -2.009696,1.067835 l -0.807,0.021 -0.266066,0.264355 -0.266069,0.264355 0.09384,1.305723 c 0.112033,1.558918 0.110114,1.730537 -0.02243,2.004055 -0.316899,0.654 -0.84228,1.011111 -1.52262,1.034926 -0.406357,0.01436 -0.545878,-0.0313 -1.746211,-0.570067 -1.899827,-0.852702 -1.976004,-0.833323 -2.68576,0.683113 -0.536625,1.146528 -0.817803,1.476384 -1.423194,1.669604 -0.526877,0.168155 -0.626489,0.150072 -2.532783,-0.459786 -0.871081,-0.278676 -1.689211,-0.503723 -1.818063,-0.500092 -0.314814,0.0085 -0.518049,0.166618 -1.105856,0.85843 -0.273474,0.321862 -0.614979,0.669788 -0.758898,0.773155 -0.485625,0.348814 -1.182143,0.418833 -1.71179,0.172087 -0.123056,-0.05733 -0.911544,-0.549717 -1.752193,-1.094196 -0.840651,-0.544478 -1.642409,-1.034133 -1.781686,-1.088113 -0.370856,-0.143734 -0.673777,-0.02102 -1.220943,0.494656 l -0.467473,0.440551 0.205855,0.207012 c 0.30123,0.30292 1.336806,1.052089 1.871039,1.353559 1.347097,0.760189 3.085329,1.292002 4.924162,1.506565 1.073064,0.125211 3.837242,-0.0054 4.94897,-0.233896 z m -5.54811,-2.402645 c 0.107828,-0.06122 0.4367,-0.402281 0.730824,-0.757895 0.630648,-0.762488 1.043483,-1.023974 1.64126,-1.039538 0.29063,-0.0076 0.78521,0.1177 2.006418,0.508205 0.94961,0.303644 1.735242,0.513911 1.897294,0.507769 0.46234,-0.01753 0.650002,-0.231997 1.19689,-1.36791 0.399305,-0.829378 0.561355,-1.088919 0.791399,-1.26751 0.341231,-0.2649 0.909312,-0.434299 1.264794,-0.377142 0.139281,0.0224 0.849869,0.308026 1.57909,0.634726 1.499425,0.671779 1.638725,0.687593 2.068529,0.234812 0.274613,-0.2893 0.278116,-0.349657 0.117843,-2.030696 -0.06169,-0.647071 -0.07156,-1.087773 -0.02838,-1.267064 0.09816,-0.407594 0.478922,-0.885531 0.881026,-1.105887 0.32171,-0.176299 0.428684,-0.195025 1.136106,-0.198885 0.67302,-0.0038 0.814103,-0.02577 1.020779,-0.159963 0.391313,-0.254045 0.439285,-0.489162 0.357704,-1.753238 -0.06741,-1.044472 -0.06251,-1.128729 0.08416,-1.452992 0.265865,-0.58773 0.889417,-1.026798 1.480075,-1.042179 0.593066,-0.01545 0.989245,-0.46606 0.973024,-1.106715 -0.02308,-0.915164 -0.408146,-2.706416 -0.845043,-3.931907 -0.827329,-2.32062 -1.89225,-3.807981 -3.816381,-5.330265 -1.819435,-1.439454 -3.879245,-2.257464 -6.551167,-2.601659 -1.162631,-0.14977 -3.662471,-0.08348 -4.896026,0.129748 -4.493896,0.77711 -8.400423,2.83997 -11.2673937,5.94979 -0.8637085,0.936876 -1.2378384,1.426144 -1.8315303,2.395181 -1.4783283,2.412958 -1.9807213,4.883012 -1.4914246,7.332686 0.6602201,3.305433 1.9116859,6.153255 3.3503664,7.624086 0.6017152,0.615163 1.0490072,0.584114 1.7722902,-0.123036 0.409152,-0.40002 0.705954,-0.568531 1.121047,-0.636474 0.638317,-0.104491 0.749899,-0.04869 3.668927,1.833734 0.878795,0.566724 1.166424,0.63922 1.587512,0.400132 z m 0.147405,-8.775701 c -0.933345,-0.160869 -2.165011,-0.879523 -2.684343,-1.566268 -0.585909,-0.77478 -0.780086,-1.813075 -0.52804,-2.823483 0.166074,-0.665768 0.30339,-0.87575 0.577346,-0.882884 0.144934,-0.0038 0.255508,0.04921 0.33147,0.158802 0.103225,0.14894 0.09826,0.218894 -0.05267,0.740933 -0.170138,0.588448 -0.223346,1.643818 -0.06208,1.231203 0.36034,-0.921925 0.588202,-1.307354 1.128316,-1.908554 1.518985,-1.690764 3.954137,-2.793489 6.297146,-2.851575 0.972316,-0.02421 1.601463,0.07743 2.179744,0.351794 0.208434,0.0989 0.392392,0.165657 0.408802,0.148377 0.07767,-0.08182 -0.78725,-0.731875 -1.213091,-0.911748 -0.359048,-0.151665 -0.492102,-0.248286 -0.53024,-0.385053 -0.06839,-0.245263 -0.0076,-0.389649 0.20872,-0.49506 0.153817,-0.07497 0.261384,-0.05171 0.738251,0.159722 1.629401,0.722443 2.334409,2.194742 1.920171,4.009998 -0.179617,0.787103 -0.556694,1.51392 -1.116611,2.152264 -1.787302,2.037651 -5.125626,3.298498 -7.602885,2.871532 z m 1.974887,-0.902371 c 1.355457,-0.204357 2.614685,-0.700842 3.668124,-1.44625 0.829463,-0.586934 1.883051,-1.704414 1.736893,-1.842227 -0.0916,-0.08638 -1.443452,-0.01574 -1.9903,0.103965 -1.344085,0.294281 -2.796748,0.994314 -3.797695,1.830097 -0.536182,0.44771 -1.170943,1.169791 -1.16684,1.327365 0.0014,0.05522 0.120557,0.07231 0.778434,0.111829 0.08224,0.0049 0.429358,-0.03322 0.771384,-0.08478 z M 17.51403,58.814473 c 0.674232,-1.075187 2.007716,-2.141847 3.516719,-2.813028 1.226211,-0.5454 2.457818,-0.806379 3.77166,-0.799228 l 0.810543,0.0044 0.01459,-0.317883 c 0.01957,-0.426351 -0.240029,-0.917837 -0.623705,-1.180825 -0.529162,-0.362699 -1.051253,-0.497897 -1.985091,-0.514045 -1.33089,-0.02299 -2.546226,0.294073 -3.915029,1.021442 -0.873597,0.464226 -1.420099,0.884548 -2.022717,1.555719 -1.029762,1.146899 -1.254821,2.176631 -0.643149,2.942656 0.144236,0.180634 0.607756,0.466921 0.814862,0.503291 0.0044,7.25e-4 0.122004,-0.180358 0.261316,-0.402509 z"
       id="path3" /><path
       style="fill:#ff7655;fill-opacity:1;stroke-width:0.278364"
       d="M 50.236018,70.692987 C 47.122127,69.239316 44.726497,66.860498 43.613529,64.116953 43.500685,63.838775 43.355748,63.606778 43.273998,63.573475 42.969489,63.449397 42.56035,62.868291 42.3811,62.30526 c -0.730822,-2.29547 -0.715188,-5.406186 0.04349,-8.655668 0.532619,-2.281211 1.646176,-4.140256 3.400809,-5.677521 2.846232,-2.493646 6.773153,-3.922893 11.192826,-4.073768 1.833039,-0.06258 4.02589,0.156876 5.898186,0.590269 1.136057,0.262976 3.627487,1.238721 4.68765,1.835885 2.15468,1.213668 4.047842,2.985709 5.071071,4.746618 1.182322,2.034697 1.604225,3.176294 1.84562,4.993927 0.260905,1.964616 -0.09829,4.942249 -0.818431,6.784416 -0.204258,0.522416 -0.263325,0.611609 -0.568022,0.856886 -0.30097,0.24229 -0.352031,0.318252 -0.444084,0.660696 -0.232439,0.864621 -1.265618,2.528388 -2.162608,3.482527 -3.568487,3.795826 -9.754471,5.470934 -15.869832,4.297402 -1.553618,-0.298135 -2.880578,-0.734463 -4.42176,-1.453942 z m 3.979538,0.530285 c 3.604274,0.769243 7.224686,0.567509 10.453804,-0.582506 3.227037,-1.149276 5.989033,-3.517715 7.002318,-6.004552 l 0.216124,-0.530411 -0.374553,-0.105478 c -0.481359,-0.135543 -0.778598,-0.108961 -1.05823,0.09463 -0.207519,0.151088 -0.252116,0.241382 -0.598781,1.212277 -0.36488,1.021877 -0.382968,1.056914 -0.699014,1.354041 -0.603235,0.567107 -1.189701,0.611446 -2.269301,0.171548 l -0.747597,-0.304613 -0.349789,0.135358 -0.349796,0.135353 -0.438055,1.233626 c -0.523001,1.472834 -0.59363,1.629258 -0.824797,1.826597 -0.552725,0.47185 -1.177253,0.588094 -1.809959,0.336873 -0.377955,-0.149946 -0.487421,-0.247753 -1.370649,-1.22293 -1.397919,-1.543453 -1.475471,-1.556276 -2.73414,-0.452142 -0.951632,0.834785 -1.341553,1.024077 -1.973593,0.958099 -0.550075,-0.0574 -0.634057,-0.113964 -2.135357,-1.437581 -0.686023,-0.604832 -1.345068,-1.139281 -1.46454,-1.18768 -0.29179,-0.118502 -0.541372,-0.05528 -1.357405,0.342482 -0.379652,0.185056 -0.832076,0.366678 -1.005385,0.403605 -0.584782,0.124599 -1.250851,-0.09079 -1.636956,-0.52935 -0.0897,-0.101894 -0.614311,-0.869323 -1.165784,-1.705401 -0.551474,-0.836078 -1.089332,-1.606321 -1.195237,-1.711665 -0.281996,-0.280476 -0.608709,-0.289636 -1.316821,-0.0369 l -0.604979,0.215914 0.105467,0.272226 c 0.154343,0.39834 0.802214,1.500127 1.170555,1.990652 0.928783,1.236894 2.307475,2.421595 3.905628,3.356065 0.932609,0.545322 3.516858,1.534978 4.626819,1.771873 z m -4.117513,-4.427225 c 0.123337,-0.01284 0.561435,-0.193206 0.973551,-0.400896 0.883634,-0.445303 1.366705,-0.51913 1.920477,-0.29349 0.269237,0.109699 0.671967,0.422932 1.633807,1.270692 0.747925,0.659219 1.383136,1.167093 1.53403,1.226503 0.430511,0.169491 0.688466,0.04836 1.645244,-0.772589 0.698582,-0.599407 0.951167,-0.772102 1.233545,-0.843359 0.418857,-0.105693 1.007166,-0.03288 1.30983,0.162138 0.118586,0.07641 0.654813,0.623202 1.191625,1.21509 1.103781,1.217056 1.225028,1.287437 1.80041,1.045204 0.367634,-0.154777 0.39506,-0.208651 0.922891,-1.812699 0.203173,-0.617437 0.370995,-1.025053 0.482473,-1.17195 0.253487,-0.333936 0.794044,-0.6189 1.250778,-0.659358 0.36542,-0.03235 0.470916,-0.0067 1.120423,0.273768 0.617923,0.266718 0.756017,0.303098 0.99917,0.26314 0.460366,-0.07566 0.598664,-0.271759 1.031228,-1.462311 0.357426,-0.983719 0.395725,-1.05893 0.660195,-1.297082 0.479375,-0.431626 1.226727,-0.583542 1.773901,-0.36059 0.549407,0.223861 1.093122,-0.02988 1.335373,-0.623195 0.346132,-0.847497 0.71229,-2.64271 0.803929,-3.940518 0.173523,-2.457572 -0.204982,-4.247276 -1.356453,-6.413772 -1.088813,-2.048624 -2.64719,-3.624509 -4.956377,-5.012056 -1.004799,-0.603763 -3.321105,-1.546266 -4.536536,-1.846019 -4.428005,-1.091681 -8.834006,-0.769982 -12.708002,0.927863 -1.167091,0.511505 -1.706118,0.809495 -2.638798,1.45882 -2.322418,1.616843 -3.773851,3.677644 -4.308779,6.11776 -0.721801,3.292533 -0.718414,6.403206 0.009,8.327762 0.304265,0.804932 0.726418,0.955992 1.672692,0.598556 0.535286,-0.202196 0.874768,-0.237432 1.282239,-0.13308 0.626592,0.160466 0.706406,0.256342 2.624606,3.15199 0.577486,0.871765 0.811844,1.053592 1.293483,1.003586 z m 3.656851,-7.978855 c -0.790328,-0.521908 -1.630054,-1.674443 -1.83013,-2.511875 -0.225725,-0.944785 0.01311,-1.973733 0.649457,-2.798055 0.419297,-0.543147 0.62934,-0.680374 0.88313,-0.576962 0.134266,0.0547 0.214283,0.147602 0.239875,0.278477 0.03477,0.17784 0.0023,0.239916 -0.345597,0.657502 -0.391994,0.470704 -0.864265,1.416009 -0.550965,1.102795 0.700033,-0.699816 1.063421,-0.9614 1.799408,-1.295306 2.069831,-0.939048 4.742823,-0.97181 6.912186,-0.08473 0.900287,0.368049 1.435769,0.71362 1.855332,1.196991 0.151232,0.174221 0.292931,0.309204 0.314897,0.299959 0.103966,-0.04377 -0.427361,-0.986293 -0.745216,-1.321939 -0.268008,-0.283002 -0.351103,-0.424903 -0.331144,-0.565479 0.03578,-0.252092 0.149494,-0.359914 0.389849,-0.369682 0.170977,-0.0069 0.260164,0.05755 0.612094,0.44257 1.202504,1.315619 1.257393,2.947085 0.149485,4.443507 -0.480396,0.648857 -1.117461,1.163254 -1.886488,1.523234 -2.454807,1.14909 -6.018506,0.96423 -8.116173,-0.421014 z m 2.171011,-0.03397 c 1.323531,0.356789 2.676147,0.407391 3.940186,0.147399 0.995283,-0.204717 2.408769,-0.805439 2.330202,-0.990321 -0.04925,-0.115881 -1.31579,-0.593719 -1.864719,-0.703514 -1.3492,-0.269856 -2.960684,-0.211647 -4.212907,0.15218 -0.670784,0.194898 -1.541967,0.601544 -1.601442,0.747513 -0.02085,0.05114 0.08139,0.114629 0.668115,0.414828 0.07335,0.0375 0.406595,0.141889 0.740565,0.231915 z M 54.130019,57.38818 c 1.049045,-0.714223 2.698505,-1.156068 4.350013,-1.165241 1.342011,-0.0074 2.574827,0.247766 3.775358,0.781579 l 0.740635,0.329332 0.140924,-0.285307 c 0.189032,-0.382659 0.148493,-0.937013 -0.09739,-1.331871 -0.339125,-0.544568 -0.763071,-0.877926 -1.611934,-1.267481 -1.209773,-0.555185 -2.450202,-0.752484 -3.995849,-0.635585 -0.986463,0.07461 -1.655709,0.240285 -2.477019,0.613195 -1.403466,0.637227 -2.022859,1.490082 -1.77002,2.437187 0.05962,0.223335 0.369281,0.671577 0.544386,0.788003 0.0039,0.0023 0.184126,-0.116238 0.400882,-0.263807 z"
       id="path4" /></g></svg>
