<?xml version="1.0" encoding="UTF-8" standalone="no"?>
<!-- Created with Inkscape (http://www.inkscape.org/) -->

<svg
   width="150"
   height="140"
   viewBox="0 0 39.6875 37.041666"
   version="1.1"
   id="svg1"
   xml:space="preserve"
   sodipodi:docname="donuts_fundo_preto.svg"
   inkscape:version="1.3.2 (091e20e, 2023-11-25, custom)"
   xmlns:inkscape="http://www.inkscape.org/namespaces/inkscape"
   xmlns:sodipodi="http://sodipodi.sourceforge.net/DTD/sodipodi-0.dtd"
   xmlns="http://www.w3.org/2000/svg"
   xmlns:svg="http://www.w3.org/2000/svg"><sodipodi:namedview
     id="namedview1"
     pagecolor="#ffffff"
     bordercolor="#000000"
     borderopacity="0.25"
     inkscape:showpageshadow="2"
     inkscape:pageopacity="0.0"
     inkscape:pagecheckerboard="0"
     inkscape:deskcolor="#d1d1d1"
     inkscape:zoom="2.4164044"
     inkscape:cx="-62.90338"
     inkscape:cy="95.389664"
     inkscape:window-width="1920"
     inkscape:window-height="1017"
     inkscape:window-x="-8"
     inkscape:window-y="-8"
     inkscape:window-maximized="1"
     inkscape:current-layer="svg1" /><defs
     id="defs1" /><path
     id="path2"
     style="fill:#270001;fill-opacity:1;stroke-width:0.181727"
     d="m 28.510802,17.120402 c -0.636345,0.0085 -1.268353,0.04412 -1.648478,0.103869 -1.252945,0.196941 -2.648421,0.599831 -3.753776,1.083655 -2.665146,1.166562 -4.710422,2.977266 -5.829619,5.160926 -0.68996,1.346175 -0.907779,2.728739 -0.665075,4.221964 0.345722,2.127024 1.111222,3.990134 2.130102,5.18418 0.249911,0.292871 0.644832,0.540535 0.861963,0.540535 0.05829,0 0.20481,0.103061 0.343132,0.241846 1.364219,1.368795 3.422105,2.207175 5.688541,2.317688 1.121745,0.0547 2.041602,-0.0076 3.065963,-0.207739 4.032106,-0.787919 7.397692,-3.295819 8.634098,-6.433716 0.310787,-0.788755 0.528053,-2.034702 0.454753,-2.60811 -0.02903,-0.227095 -0.01671,-0.28469 0.10697,-0.502811 0.125247,-0.220811 0.139142,-0.2886 0.133842,-0.650607 -0.01863,-1.276464 -0.541031,-3.143785 -1.190108,-4.25452 -0.600518,-1.027631 -1.142973,-1.60703 -2.372982,-2.535246 -1.064497,-0.803316 -2.663415,-1.401818 -4.283459,-1.602486 -0.398559,-0.04937 -1.039522,-0.06791 -1.675867,-0.05943 z m -0.06821,6.45542 c 0.05648,5e-4 0.112996,0.0017 0.170015,0.0041 0.640093,0.02712 0.995977,0.127484 1.352373,0.379822 0.258411,0.182966 0.427216,0.516589 0.406176,0.802018 l -0.0155,0.212907 -0.555522,-0.01705 c -0.900841,-0.02773 -1.750262,0.126094 -2.600875,0.470255 -1.046787,0.423531 -1.980827,1.114772 -2.462382,1.823661 -0.09951,0.146472 -0.183035,0.265654 -0.186035,0.2651 -0.141373,-0.02799 -0.454157,-0.227807 -0.549837,-0.351399 -0.40578,-0.524111 -0.233131,-1.21037 0.49351,-1.961121 0.425229,-0.439339 0.80754,-0.711786 1.4149,-1.00769 0.89217,-0.434661 1.68584,-0.629734 2.533179,-0.620634 z m 1.201994,1.944067 c 0.19204,8.29e-4 0.337215,0.01128 0.360185,0.03359 0.09777,0.09492 -0.644927,0.825658 -1.224215,1.204577 -0.735709,0.481237 -1.607775,0.792053 -2.54093,0.905371 -0.235467,0.0286 -0.474417,0.04821 -0.530717,0.04341 -0.450423,-0.03796 -0.531751,-0.05133 -0.531751,-0.08837 0,-0.105683 0.448557,-0.578989 0.824239,-0.869714 0.701327,-0.542723 1.709051,-0.986349 2.636015,-1.160136 0.235713,-0.04417 0.687105,-0.07003 1.007174,-0.06873 z m 7.592301,1.244885 v 0.370004 c 0,1.733195 -1.098828,3.821392 -2.785876,5.29425 -1.688135,1.473808 -3.851908,2.47587 -6.247681,2.89388 -0.737796,0.12873 -2.564924,0.166506 -3.271118,0.0677 C 23.722053,35.221276 22.583773,34.848994 21.7076,34.335888 21.360126,34.1324 20.689427,33.632059 20.495787,33.431551 l -0.132291,-0.13746 0.316259,-0.275952 c 0.370057,-0.323521 0.572084,-0.397649 0.814421,-0.298689 0.09101,0.03717 0.611983,0.366312 1.157552,0.731738 0.545567,0.365426 1.057158,0.696306 1.137398,0.735355 0.345387,0.168099 0.806699,0.13473 1.133264,-0.08217 0.09678,-0.06428 0.328125,-0.283201 0.514181,-0.486275 0.399913,-0.43649 0.536696,-0.53451 0.744657,-0.534851 0.08512,-1.72e-4 0.621432,0.15851 1.191659,0.35295 1.247892,0.425506 1.31329,0.438647 1.663981,0.338997 0.402951,-0.114495 0.594475,-0.322439 0.968416,-1.053166 0.494588,-0.966491 0.544935,-0.977411 1.784387,-0.395324 0.783099,0.367767 0.874592,0.399175 1.143083,0.396875 0.449511,-0.0039 0.802244,-0.225698 1.022677,-0.642338 0.09219,-0.174254 0.09625,-0.284725 0.04909,-1.292428 l -0.03927,-0.843876 0.180351,-0.166398 0.179834,-0.165882 h 0.533301 c 0.769809,0 1.117554,-0.169374 1.345137,-0.655257 0.11924,-0.254564 0.121407,-0.280131 0.08992,-0.979785 -0.02993,-0.664747 -0.02517,-0.729381 0.06408,-0.870231 0.120269,-0.189794 0.295599,-0.277973 0.623735,-0.314193 z" /><path
     id="path8"
     style="fill:#270001;fill-opacity:1;stroke-width:0.181727"
     d="m 12.907816,0.64145827 c -0.636345,0.008484 -1.268353,0.044121 -1.648478,0.103869 -1.252945,0.196941 -2.6484213,0.59983103 -3.7537763,1.08365503 -2.665146,1.166562 -4.710422,2.977266 -5.829619,5.160926 -0.68996,1.346175 -0.907779,2.728739 -0.665075,4.2219637 0.345722,2.127024 1.111222,3.990134 2.130102,5.18418 0.249911,0.292871 0.644832,0.540535 0.861963,0.540535 0.058291,0 0.20481,0.103061 0.343132,0.241846 1.364219,1.368795 3.422105,2.207175 5.6885413,2.317688 1.121745,0.0547 2.041602,-0.0076 3.065963,-0.207739 4.032106,-0.787919 7.397692,-3.295819 8.634098,-6.433716 0.310787,-0.788755 0.528053,-2.034702 0.454753,-2.60811 -0.02903,-0.227095 -0.01671,-0.2846897 0.10697,-0.5028107 0.125247,-0.220811 0.139142,-0.2886 0.133842,-0.650607 -0.01863,-1.276464 -0.541031,-3.143785 -1.190108,-4.25452 -0.600518,-1.027631 -1.142973,-1.60703 -2.372982,-2.535246 -1.064497,-0.803316 -2.663415,-1.40181803 -4.283459,-1.60248603 -0.398559,-0.049366 -1.039522,-0.067912 -1.675867,-0.059428 z m -0.06821,6.45542003 c 0.05648,5e-4 0.112996,0.00173 0.170015,0.00413 0.640093,0.027121 0.995977,0.127484 1.352373,0.379822 0.258411,0.182966 0.427216,0.516589 0.406176,0.802018 l -0.0155,0.212907 -0.555522,-0.017053 c -0.900841,-0.027726 -1.750262,0.126094 -2.600875,0.470255 -1.046787,0.423531 -1.9808273,1.1147717 -2.4623823,1.8236607 -0.099507,0.146472 -0.183035,0.265654 -0.186035,0.2651 -0.141373,-0.02799 -0.454157,-0.227807 -0.549837,-0.351399 -0.40578,-0.524111 -0.233131,-1.2103697 0.49351,-1.9611207 0.425229,-0.439339 0.80754,-0.711786 1.4149003,-1.00769 0.89217,-0.434661 1.68584,-0.629734 2.533179,-0.620634 z m 1.201994,1.944067 c 0.19204,8.29e-4 0.337215,0.01128 0.360185,0.03359 0.09777,0.094924 -0.644927,0.825658 -1.224215,1.2045767 -0.735709,0.481237 -1.607775,0.792053 -2.54093,0.905371 -0.235467,0.0286 -0.474417,0.04821 -0.530717,0.04341 -0.4504233,-0.03796 -0.5317513,-0.05133 -0.5317513,-0.08837 0,-0.105683 0.4485573,-0.578989 0.8242393,-0.869714 0.701327,-0.5427227 1.709051,-0.9863487 2.636015,-1.1601357 0.235713,-0.04417 0.687105,-0.07003 1.007174,-0.06873 z m 7.592301,1.2448847 v 0.370004 c 0,1.733195 -1.098828,3.821392 -2.785876,5.29425 -1.688135,1.473808 -3.851908,2.47587 -6.247681,2.89388 -0.737796,0.12873 -2.564924,0.166506 -3.2711183,0.0677 -1.210156,-0.169328 -2.348436,-0.54161 -3.224609,-1.054716 -0.347474,-0.203488 -1.018173,-0.703829 -1.211813,-0.904337 l -0.132291,-0.13746 0.316259,-0.275952 c 0.370057,-0.323521 0.572084,-0.397649 0.814421,-0.298689 0.091013,0.03717 0.611983,0.366312 1.157552,0.731738 0.545567,0.365426 1.057158,0.696306 1.137398,0.735355 0.345387,0.168099 0.806699,0.13473 1.133264,-0.08216 0.096779,-0.06428 0.328125,-0.283201 0.514181,-0.486275 0.3999133,-0.43649 0.5366963,-0.53451 0.7446573,-0.534851 0.08512,-1.72e-4 0.621432,0.15851 1.191659,0.35295 1.247892,0.425506 1.31329,0.438647 1.663981,0.338997 0.402951,-0.114495 0.594475,-0.322439 0.968416,-1.053166 0.494588,-0.966491 0.544935,-0.977411 1.784387,-0.395324 0.783099,0.367767 0.874592,0.399175 1.143083,0.396875 0.449511,-0.0039 0.802244,-0.225698 1.022677,-0.642338 0.09219,-0.174254 0.09625,-0.284725 0.04909,-1.292428 l -0.03927,-0.843876 0.180351,-0.166398 0.179834,-0.165882 h 0.533301 c 0.769809,0 1.117554,-0.169374 1.345137,-0.655257 0.11924,-0.254564 0.121407,-0.280131 0.08992,-0.979785 -0.02993,-0.664747 -0.02517,-0.729381 0.06408,-0.870231 0.120269,-0.189794 0.295599,-0.277973 0.623735,-0.314193 z" /><path
     id="path9"
     style="fill:#270001;fill-opacity:1;stroke-width:0.0744499"
     d="M 32.013957,9.2394362 C 31.812281,9.0742038 31.604794,8.9186358 31.469893,8.837073 31.025241,8.568233 30.481581,8.3263374 30.007498,8.1863505 28.864423,7.848825 27.745683,7.876725 26.818793,8.2658417 c -0.571405,0.2398815 -1.004434,0.6157322 -1.322324,1.1477662 -0.452818,0.7578561 -0.704441,1.5437461 -0.700133,2.1867911 0.0011,0.157725 0.05949,0.339538 0.127545,0.396824 0.01827,0.01538 0.037,0.08634 0.04374,0.166328 0.06644,0.788925 0.490225,1.594618 1.171407,2.227208 0.337142,0.313095 0.641868,0.536264 1.015733,0.74378 1.471605,0.816843 3.188093,0.918767 4.403474,0.261501 0.305503,-0.165215 0.702316,-0.498394 0.830624,-0.697447 0.05082,-0.07884 0.06991,-0.09361 0.16618,-0.12937 0.09752,-0.03616 0.119749,-0.05375 0.213596,-0.1686 0.330956,-0.40496 0.659858,-1.128054 0.749471,-1.647422 0.08291,-0.480506 0.06576,-0.805216 -0.07486,-1.420646 C 33.321555,10.799937 32.978329,10.190513 32.523523,9.7002051 32.411632,9.5795811 32.215637,9.4046639 32.013958,9.2394362 Z M 30.28945,11.244677 c 0.01757,0.01506 0.03496,0.03035 0.0522,0.04616 0.19346,0.177375 0.278519,0.302726 0.323647,0.475838 0.03272,0.125524 -0.0024,0.27462 -0.0843,0.358527 l -0.06106,0.0626 -0.169602,-0.151918 c -0.275022,-0.24636 -0.581829,-0.42225 -0.939224,-0.538803 -0.439819,-0.143432 -0.914934,-0.173214 -1.252887,-0.07808 -0.06983,0.01965 -0.127457,0.03497 -0.128244,0.03401 -0.03692,-0.04607 -0.08224,-0.191221 -0.07962,-0.255198 0.0111,-0.271321 0.246263,-0.440857 0.672075,-0.484444 0.249185,-0.02551 0.440887,-0.01003 0.709313,0.05747 0.394297,0.09915 0.694513,0.247407 0.957681,0.473811 z m -0.136178,0.926424 c 0.05997,0.05093 0.102727,0.09249 0.104027,0.105555 0.0056,0.05554 -0.419964,0.08862 -0.701493,0.05455 -0.357547,-0.04327 -0.712871,-0.175937 -1.035233,-0.386614 -0.08134,-0.05317 -0.161409,-0.110057 -0.177786,-0.126418 -0.131156,-0.130731 -0.153117,-0.15638 -0.143341,-0.167993 0.02788,-0.03312 0.293341,-0.06312 0.487787,-0.05512 0.362994,0.01493 0.795873,0.14176 1.132249,0.331853 0.08554,0.04834 0.233827,0.159331 0.3338,0.24418 z m 2.051113,2.393243 -0.09762,0.115965 c -0.457269,0.543212 -1.352589,0.907784 -2.26992,0.924307 -0.917924,0.01654 -1.860459,-0.24027 -2.721617,-0.741334 -0.265202,-0.154305 -0.847817,-0.624521 -1.043081,-0.841805 -0.334608,-0.372345 -0.593146,-0.789335 -0.732379,-1.181312 -0.05522,-0.155448 -0.133422,-0.489216 -0.141211,-0.603146 l -0.0052,-0.07798 0.171926,-0.003 c 0.201336,-0.0038 0.284212,0.0263 0.334055,0.121255 0.01872,0.03567 0.09516,0.276267 0.169742,0.534735 0.07458,0.258467 0.147624,0.497144 0.162471,0.530551 0.0639,0.143812 0.217284,0.255061 0.37686,0.273238 0.04729,0.0054 0.177556,-0.0022 0.289446,-0.01675 0.240499,-0.03129 0.309229,-0.02593 0.374497,0.02883 0.02672,0.0224 0.152946,0.213633 0.280367,0.425016 0.278849,0.462591 0.295878,0.483964 0.432082,0.545253 0.156495,0.07043 0.271387,0.05578 0.581375,-0.07458 0.41,-0.172427 0.428661,-0.162566 0.663553,0.346875 0.148408,0.321869 0.168797,0.35585 0.253553,0.425966 0.141979,0.117294 0.310981,0.140921 0.489993,0.06849 0.07487,-0.03029 0.105283,-0.06384 0.356365,-0.392116 l 0.21033,-0.274847 0.100429,-0.0046 0.100134,-0.0045 0.167145,0.140701 c 0.24127,0.203098 0.394947,0.241758 0.594464,0.149519 0.104534,-0.04833 0.11196,-0.05577 0.286681,-0.283356 0.166001,-0.216238 0.184545,-0.23524 0.249675,-0.25584 0.08776,-0.02775 0.165983,-0.0091 0.278382,0.06609 z" /><path
     id="path10"
     style="fill:#270001;fill-opacity:1;stroke-width:0.0744499"
     d="m 14.056836,23.418992 c -0.201676,-0.165232 -0.409163,-0.3208 -0.544064,-0.402363 -0.444652,-0.26884 -0.988312,-0.510735 -1.462395,-0.650722 -1.143075,-0.337526 -2.2618154,-0.309626 -3.1887054,0.07949 -0.571405,0.239881 -1.004434,0.615732 -1.322324,1.147766 -0.452818,0.757856 -0.704441,1.543746 -0.700133,2.186791 0.0011,0.157725 0.05949,0.339538 0.127545,0.396824 0.01827,0.01538 0.037,0.08634 0.04374,0.166328 0.06644,0.788925 0.490225,1.594618 1.171407,2.227208 0.337142,0.313095 0.641868,0.536264 1.015733,0.74378 1.4716054,0.816843 3.1880934,0.918767 4.4034744,0.261501 0.305503,-0.165215 0.702316,-0.498394 0.830624,-0.697447 0.05082,-0.07884 0.06991,-0.09361 0.16618,-0.12937 0.09752,-0.03616 0.119749,-0.05375 0.213596,-0.1686 0.330956,-0.40496 0.659858,-1.128054 0.749471,-1.647422 0.08291,-0.480506 0.06576,-0.805216 -0.07486,-1.420646 -0.121691,-0.532618 -0.464917,-1.142042 -0.919723,-1.63235 -0.111891,-0.120624 -0.307886,-0.295541 -0.509565,-0.460769 z m -1.724507,2.005241 c 0.01757,0.01506 0.03496,0.03035 0.0522,0.04616 0.19346,0.177375 0.278519,0.302726 0.323647,0.475838 0.03272,0.125524 -0.0024,0.27462 -0.0843,0.358527 l -0.06106,0.0626 -0.169602,-0.151918 c -0.275022,-0.24636 -0.581829,-0.42225 -0.939224,-0.538803 -0.439819,-0.143432 -0.914934,-0.173214 -1.252887,-0.07808 -0.06983,0.01965 -0.127457,0.03497 -0.128244,0.03401 -0.03692,-0.04607 -0.08224,-0.191221 -0.07962,-0.255198 0.0111,-0.271321 0.2462634,-0.440857 0.6720754,-0.484444 0.249185,-0.02551 0.440887,-0.01003 0.709313,0.05747 0.394297,0.09915 0.694513,0.247407 0.957681,0.473811 z m -0.136178,0.926424 c 0.05997,0.05093 0.102727,0.09249 0.104027,0.105555 0.0056,0.05554 -0.419964,0.08862 -0.701493,0.05455 -0.357547,-0.04327 -0.712871,-0.175937 -1.035233,-0.386614 -0.08134,-0.05317 -0.161409,-0.110057 -0.177786,-0.126418 -0.131156,-0.130731 -0.153117,-0.15638 -0.143341,-0.167993 0.02788,-0.03312 0.293341,-0.06312 0.487787,-0.05512 0.362994,0.01493 0.795873,0.14176 1.132249,0.331853 0.08554,0.04834 0.233827,0.159331 0.3338,0.24418 z m 2.051113,2.393243 -0.09762,0.115965 c -0.457269,0.543212 -1.352589,0.907784 -2.26992,0.924307 -0.917924,0.01654 -1.860459,-0.24027 -2.7216174,-0.741334 -0.265202,-0.154305 -0.847817,-0.624521 -1.043081,-0.841805 -0.334608,-0.372345 -0.593146,-0.789335 -0.732379,-1.181312 -0.05522,-0.155448 -0.133422,-0.489216 -0.141211,-0.603146 l -0.0052,-0.07798 0.171926,-0.003 c 0.201336,-0.0038 0.284212,0.0263 0.334055,0.121255 0.01872,0.03567 0.09516,0.276267 0.169742,0.534735 0.07458,0.258467 0.147624,0.497144 0.162471,0.530551 0.0639,0.143812 0.217284,0.255061 0.37686,0.273238 0.04729,0.0054 0.177556,-0.0022 0.289446,-0.01675 0.240499,-0.03129 0.309229,-0.02593 0.374497,0.02883 0.02672,0.0224 0.152946,0.213633 0.280367,0.425016 0.278849,0.462591 0.295878,0.483964 0.432082,0.545253 0.156495,0.07043 0.2713874,0.05578 0.5813754,-0.07458 0.41,-0.172427 0.428661,-0.162566 0.663553,0.346875 0.148408,0.321869 0.168797,0.35585 0.253553,0.425966 0.141979,0.117294 0.310981,0.140921 0.489993,0.06849 0.07487,-0.03029 0.105283,-0.06384 0.356365,-0.392116 l 0.21033,-0.274847 0.100429,-0.0046 0.100134,-0.0045 0.167145,0.140701 c 0.24127,0.203098 0.394947,0.241758 0.594464,0.149519 0.104534,-0.04833 0.11196,-0.05577 0.286681,-0.283356 0.166001,-0.216238 0.184545,-0.23524 0.249675,-0.25584 0.08776,-0.02775 0.165983,-0.0091 0.278382,0.06609 z" /></svg>
